<mxfile host="app.diagrams.net" modified="2020-05-10T10:00:07.725Z" agent="5.0 (Windows)" etag="EeEF0D_dOrp2mjRfYUvI" version="13.0.9" type="github">
  <diagram id="Zbr5eXJ1lrg5oQj0TJRN" name="Page-1">
    <mxGraphModel dx="1300" dy="660" grid="1" gridSize="10" guides="1" tooltips="1" connect="1" arrows="1" fold="1" page="1" pageScale="1" pageWidth="850" pageHeight="1100" math="0" shadow="0">
      <root>
        <mxCell id="0" />
        <mxCell id="1" parent="0" />
        <mxCell id="eKWa105OlJWNkmlLYC_9-3" value="" style="rounded=0;whiteSpace=wrap;html=1;" vertex="1" parent="1">
          <mxGeometry x="450" y="590" width="390" height="160" as="geometry" />
        </mxCell>
        <mxCell id="eKWa105OlJWNkmlLYC_9-1" value="" style="rounded=0;whiteSpace=wrap;html=1;" vertex="1" parent="1">
          <mxGeometry x="30" y="540" width="250" height="340" as="geometry" />
        </mxCell>
        <mxCell id="FtybDF0M8yzEMGMQI0fj-1" value="Monsters" style="swimlane;fontStyle=1;align=center;verticalAlign=top;childLayout=stackLayout;horizontal=1;startSize=26;horizontalStack=0;resizeParent=1;resizeParentMax=0;resizeLast=0;collapsible=1;marginBottom=0;" parent="1" vertex="1">
          <mxGeometry x="310" y="60" width="215" height="190" as="geometry" />
        </mxCell>
        <mxCell id="FtybDF0M8yzEMGMQI0fj-2" value="- fDamage: int&#xa;- fHasItems: bool&#xa;- fHaveClue: bool&#xa;&#xa; " style="text;strokeColor=none;fillColor=none;align=left;verticalAlign=top;spacingLeft=4;spacingRight=4;overflow=hidden;rotatable=0;points=[[0,0.5],[1,0.5]];portConstraint=eastwest;" parent="FtybDF0M8yzEMGMQI0fj-1" vertex="1">
          <mxGeometry y="26" width="215" height="64" as="geometry" />
        </mxCell>
        <mxCell id="FtybDF0M8yzEMGMQI0fj-3" value="" style="line;strokeWidth=1;fillColor=none;align=left;verticalAlign=middle;spacingTop=-1;spacingLeft=3;spacingRight=3;rotatable=0;labelPosition=right;points=[];portConstraint=eastwest;" parent="FtybDF0M8yzEMGMQI0fj-1" vertex="1">
          <mxGeometry y="90" width="215" height="8" as="geometry" />
        </mxCell>
        <mxCell id="FtybDF0M8yzEMGMQI0fj-4" value="+ Monsters()&#xa;{virtual} + MonsterMessage(): string&#xa;+ DamageDealt(): int&#xa;+ HasItem(): bool&#xa;+ HaveClue(): bool&#xa;&#xa;" style="text;strokeColor=none;fillColor=none;align=left;verticalAlign=top;spacingLeft=4;spacingRight=4;overflow=hidden;rotatable=0;points=[[0,0.5],[1,0.5]];portConstraint=eastwest;" parent="FtybDF0M8yzEMGMQI0fj-1" vertex="1">
          <mxGeometry y="98" width="215" height="92" as="geometry" />
        </mxCell>
        <mxCell id="FtybDF0M8yzEMGMQI0fj-17" value="" style="endArrow=block;endSize=16;endFill=0;html=1;entryX=0.005;entryY=0.928;entryDx=0;entryDy=0;entryPerimeter=0;exitX=0.463;exitY=-0.007;exitDx=0;exitDy=0;exitPerimeter=0;" parent="1" source="FtybDF0M8yzEMGMQI0fj-5" target="FtybDF0M8yzEMGMQI0fj-4" edge="1">
          <mxGeometry width="160" relative="1" as="geometry">
            <mxPoint x="110" y="290" as="sourcePoint" />
            <mxPoint x="270" y="290" as="targetPoint" />
          </mxGeometry>
        </mxCell>
        <mxCell id="FtybDF0M8yzEMGMQI0fj-18" value="" style="endArrow=block;endSize=16;endFill=0;html=1;exitX=0.5;exitY=0;exitDx=0;exitDy=0;entryX=0.459;entryY=1.027;entryDx=0;entryDy=0;entryPerimeter=0;" parent="1" source="FtybDF0M8yzEMGMQI0fj-9" target="FtybDF0M8yzEMGMQI0fj-4" edge="1">
          <mxGeometry width="160" relative="1" as="geometry">
            <mxPoint x="410" y="300" as="sourcePoint" />
            <mxPoint x="570" y="300" as="targetPoint" />
          </mxGeometry>
        </mxCell>
        <mxCell id="FtybDF0M8yzEMGMQI0fj-19" value="" style="endArrow=block;endSize=16;endFill=0;html=1;exitX=0.5;exitY=0;exitDx=0;exitDy=0;entryX=1.017;entryY=0.955;entryDx=0;entryDy=0;entryPerimeter=0;" parent="1" source="FtybDF0M8yzEMGMQI0fj-13" target="FtybDF0M8yzEMGMQI0fj-4" edge="1">
          <mxGeometry width="160" relative="1" as="geometry">
            <mxPoint x="620" y="210" as="sourcePoint" />
            <mxPoint x="780" y="210" as="targetPoint" />
          </mxGeometry>
        </mxCell>
        <mxCell id="FtybDF0M8yzEMGMQI0fj-13" value="Witch" style="swimlane;fontStyle=1;align=center;verticalAlign=top;childLayout=stackLayout;horizontal=1;startSize=26;horizontalStack=0;resizeParent=1;resizeParentMax=0;resizeLast=0;collapsible=1;marginBottom=0;" parent="1" vertex="1">
          <mxGeometry x="580" y="330" width="170" height="120" as="geometry" />
        </mxCell>
        <mxCell id="FtybDF0M8yzEMGMQI0fj-14" value="&#xa;" style="text;strokeColor=none;fillColor=none;align=left;verticalAlign=top;spacingLeft=4;spacingRight=4;overflow=hidden;rotatable=0;points=[[0,0.5],[1,0.5]];portConstraint=eastwest;" parent="FtybDF0M8yzEMGMQI0fj-13" vertex="1">
          <mxGeometry y="26" width="170" height="24" as="geometry" />
        </mxCell>
        <mxCell id="FtybDF0M8yzEMGMQI0fj-15" value="" style="line;strokeWidth=1;fillColor=none;align=left;verticalAlign=middle;spacingTop=-1;spacingLeft=3;spacingRight=3;rotatable=0;labelPosition=right;points=[];portConstraint=eastwest;" parent="FtybDF0M8yzEMGMQI0fj-13" vertex="1">
          <mxGeometry y="50" width="170" height="8" as="geometry" />
        </mxCell>
        <mxCell id="FtybDF0M8yzEMGMQI0fj-16" value="+ Witch()&#xa;+ MonsterMessage(): string&#xa;&#xa;&#xa;" style="text;strokeColor=none;fillColor=none;align=left;verticalAlign=top;spacingLeft=4;spacingRight=4;overflow=hidden;rotatable=0;points=[[0,0.5],[1,0.5]];portConstraint=eastwest;" parent="FtybDF0M8yzEMGMQI0fj-13" vertex="1">
          <mxGeometry y="58" width="170" height="62" as="geometry" />
        </mxCell>
        <mxCell id="FtybDF0M8yzEMGMQI0fj-9" value="Exploder" style="swimlane;fontStyle=1;align=center;verticalAlign=top;childLayout=stackLayout;horizontal=1;startSize=26;horizontalStack=0;resizeParent=1;resizeParentMax=0;resizeLast=0;collapsible=1;marginBottom=0;" parent="1" vertex="1">
          <mxGeometry x="332.5" y="330" width="170" height="120" as="geometry" />
        </mxCell>
        <mxCell id="FtybDF0M8yzEMGMQI0fj-10" value="&#xa;" style="text;strokeColor=none;fillColor=none;align=left;verticalAlign=top;spacingLeft=4;spacingRight=4;overflow=hidden;rotatable=0;points=[[0,0.5],[1,0.5]];portConstraint=eastwest;" parent="FtybDF0M8yzEMGMQI0fj-9" vertex="1">
          <mxGeometry y="26" width="170" height="24" as="geometry" />
        </mxCell>
        <mxCell id="FtybDF0M8yzEMGMQI0fj-11" value="" style="line;strokeWidth=1;fillColor=none;align=left;verticalAlign=middle;spacingTop=-1;spacingLeft=3;spacingRight=3;rotatable=0;labelPosition=right;points=[];portConstraint=eastwest;" parent="FtybDF0M8yzEMGMQI0fj-9" vertex="1">
          <mxGeometry y="50" width="170" height="8" as="geometry" />
        </mxCell>
        <mxCell id="FtybDF0M8yzEMGMQI0fj-12" value="+ Exploder()&#xa;+ MonsterMessage(): string&#xa;&#xa;&#xa;" style="text;strokeColor=none;fillColor=none;align=left;verticalAlign=top;spacingLeft=4;spacingRight=4;overflow=hidden;rotatable=0;points=[[0,0.5],[1,0.5]];portConstraint=eastwest;" parent="FtybDF0M8yzEMGMQI0fj-9" vertex="1">
          <mxGeometry y="58" width="170" height="62" as="geometry" />
        </mxCell>
        <mxCell id="FtybDF0M8yzEMGMQI0fj-5" value="Deadman" style="swimlane;fontStyle=1;align=center;verticalAlign=top;childLayout=stackLayout;horizontal=1;startSize=26;horizontalStack=0;resizeParent=1;resizeParentMax=0;resizeLast=0;collapsible=1;marginBottom=0;" parent="1" vertex="1">
          <mxGeometry x="80" y="330" width="170" height="120" as="geometry" />
        </mxCell>
        <mxCell id="FtybDF0M8yzEMGMQI0fj-6" value="&#xa;" style="text;strokeColor=none;fillColor=none;align=left;verticalAlign=top;spacingLeft=4;spacingRight=4;overflow=hidden;rotatable=0;points=[[0,0.5],[1,0.5]];portConstraint=eastwest;" parent="FtybDF0M8yzEMGMQI0fj-5" vertex="1">
          <mxGeometry y="26" width="170" height="24" as="geometry" />
        </mxCell>
        <mxCell id="FtybDF0M8yzEMGMQI0fj-7" value="" style="line;strokeWidth=1;fillColor=none;align=left;verticalAlign=middle;spacingTop=-1;spacingLeft=3;spacingRight=3;rotatable=0;labelPosition=right;points=[];portConstraint=eastwest;" parent="FtybDF0M8yzEMGMQI0fj-5" vertex="1">
          <mxGeometry y="50" width="170" height="8" as="geometry" />
        </mxCell>
        <mxCell id="FtybDF0M8yzEMGMQI0fj-8" value="+ Deadman()&#xa;+ MonsterMessage(): string&#xa;&#xa;&#xa;" style="text;strokeColor=none;fillColor=none;align=left;verticalAlign=top;spacingLeft=4;spacingRight=4;overflow=hidden;rotatable=0;points=[[0,0.5],[1,0.5]];portConstraint=eastwest;" parent="FtybDF0M8yzEMGMQI0fj-5" vertex="1">
          <mxGeometry y="58" width="170" height="62" as="geometry" />
        </mxCell>
        <mxCell id="FtybDF0M8yzEMGMQI0fj-28" value="NoRing" style="swimlane;fontStyle=1;align=center;verticalAlign=top;childLayout=stackLayout;horizontal=1;startSize=26;horizontalStack=0;resizeParent=1;resizeParentMax=0;resizeLast=0;collapsible=1;marginBottom=0;" parent="1" vertex="1">
          <mxGeometry x="260" y="950" width="235" height="80" as="geometry" />
        </mxCell>
        <mxCell id="FtybDF0M8yzEMGMQI0fj-29" value="&#xa;" style="text;strokeColor=none;fillColor=none;align=left;verticalAlign=top;spacingLeft=4;spacingRight=4;overflow=hidden;rotatable=0;points=[[0,0.5],[1,0.5]];portConstraint=eastwest;" parent="FtybDF0M8yzEMGMQI0fj-28" vertex="1">
          <mxGeometry y="26" width="235" height="14" as="geometry" />
        </mxCell>
        <mxCell id="FtybDF0M8yzEMGMQI0fj-30" value="" style="line;strokeWidth=1;fillColor=none;align=left;verticalAlign=middle;spacingTop=-1;spacingLeft=3;spacingRight=3;rotatable=0;labelPosition=right;points=[];portConstraint=eastwest;" parent="FtybDF0M8yzEMGMQI0fj-28" vertex="1">
          <mxGeometry y="40" width="235" height="8" as="geometry" />
        </mxCell>
        <mxCell id="FtybDF0M8yzEMGMQI0fj-31" value="+ AddRing (aPortal:Portal, aPlayer:Player)" style="text;strokeColor=none;fillColor=none;align=left;verticalAlign=top;spacingLeft=4;spacingRight=4;overflow=hidden;rotatable=0;points=[[0,0.5],[1,0.5]];portConstraint=eastwest;" parent="FtybDF0M8yzEMGMQI0fj-28" vertex="1">
          <mxGeometry y="48" width="235" height="32" as="geometry" />
        </mxCell>
        <mxCell id="FtybDF0M8yzEMGMQI0fj-32" value="HaveRing" style="swimlane;fontStyle=1;align=center;verticalAlign=top;childLayout=stackLayout;horizontal=1;startSize=26;horizontalStack=0;resizeParent=1;resizeParentMax=0;resizeLast=0;collapsible=1;marginBottom=0;" parent="1" vertex="1">
          <mxGeometry x="530" y="950" width="280" height="120" as="geometry" />
        </mxCell>
        <mxCell id="FtybDF0M8yzEMGMQI0fj-33" value="&#xa;" style="text;strokeColor=none;fillColor=none;align=left;verticalAlign=top;spacingLeft=4;spacingRight=4;overflow=hidden;rotatable=0;points=[[0,0.5],[1,0.5]];portConstraint=eastwest;" parent="FtybDF0M8yzEMGMQI0fj-32" vertex="1">
          <mxGeometry y="26" width="280" height="14" as="geometry" />
        </mxCell>
        <mxCell id="FtybDF0M8yzEMGMQI0fj-34" value="" style="line;strokeWidth=1;fillColor=none;align=left;verticalAlign=middle;spacingTop=-1;spacingLeft=3;spacingRight=3;rotatable=0;labelPosition=right;points=[];portConstraint=eastwest;" parent="FtybDF0M8yzEMGMQI0fj-32" vertex="1">
          <mxGeometry y="40" width="280" height="8" as="geometry" />
        </mxCell>
        <mxCell id="FtybDF0M8yzEMGMQI0fj-35" value="+ AddRing (aPortal:Portal, aPlayer:Player)&#xa;+ Activate (aPortal:Portal)&#xa;+ EnterPassword (aPortal:Portal,aUserGuess:String" style="text;strokeColor=none;fillColor=none;align=left;verticalAlign=top;spacingLeft=4;spacingRight=4;overflow=hidden;rotatable=0;points=[[0,0.5],[1,0.5]];portConstraint=eastwest;" parent="FtybDF0M8yzEMGMQI0fj-32" vertex="1">
          <mxGeometry y="48" width="280" height="72" as="geometry" />
        </mxCell>
        <mxCell id="FtybDF0M8yzEMGMQI0fj-36" value="CorrectPassword" style="swimlane;fontStyle=1;align=center;verticalAlign=top;childLayout=stackLayout;horizontal=1;startSize=26;horizontalStack=0;resizeParent=1;resizeParentMax=0;resizeLast=0;collapsible=1;marginBottom=0;" parent="1" vertex="1">
          <mxGeometry x="840" y="950" width="280" height="120" as="geometry" />
        </mxCell>
        <mxCell id="FtybDF0M8yzEMGMQI0fj-37" value="&#xa;" style="text;strokeColor=none;fillColor=none;align=left;verticalAlign=top;spacingLeft=4;spacingRight=4;overflow=hidden;rotatable=0;points=[[0,0.5],[1,0.5]];portConstraint=eastwest;" parent="FtybDF0M8yzEMGMQI0fj-36" vertex="1">
          <mxGeometry y="26" width="280" height="14" as="geometry" />
        </mxCell>
        <mxCell id="FtybDF0M8yzEMGMQI0fj-38" value="" style="line;strokeWidth=1;fillColor=none;align=left;verticalAlign=middle;spacingTop=-1;spacingLeft=3;spacingRight=3;rotatable=0;labelPosition=right;points=[];portConstraint=eastwest;" parent="FtybDF0M8yzEMGMQI0fj-36" vertex="1">
          <mxGeometry y="40" width="280" height="8" as="geometry" />
        </mxCell>
        <mxCell id="FtybDF0M8yzEMGMQI0fj-39" value="+ AddRing (aPortal:Portal, aPlayer:Player)&#xa;+ Activate (aPortal:Portal)&#xa;+ EnterPassword (aPortal:Portal,aUserGuess:String" style="text;strokeColor=none;fillColor=none;align=left;verticalAlign=top;spacingLeft=4;spacingRight=4;overflow=hidden;rotatable=0;points=[[0,0.5],[1,0.5]];portConstraint=eastwest;" parent="FtybDF0M8yzEMGMQI0fj-36" vertex="1">
          <mxGeometry y="48" width="280" height="72" as="geometry" />
        </mxCell>
        <mxCell id="FtybDF0M8yzEMGMQI0fj-40" value="1" style="endArrow=open;html=1;endSize=12;startArrow=diamondThin;startSize=14;startFill=0;edgeStyle=orthogonalEdgeStyle;align=left;verticalAlign=bottom;exitX=1.019;exitY=0.129;exitDx=0;exitDy=0;exitPerimeter=0;entryX=0;entryY=0.29;entryDx=0;entryDy=0;entryPerimeter=0;" parent="1" source="FtybDF0M8yzEMGMQI0fj-23" target="FtybDF0M8yzEMGMQI0fj-27" edge="1">
          <mxGeometry x="-1" y="3" relative="1" as="geometry">
            <mxPoint x="310" y="840" as="sourcePoint" />
            <mxPoint x="470" y="840" as="targetPoint" />
          </mxGeometry>
        </mxCell>
        <mxCell id="FtybDF0M8yzEMGMQI0fj-41" value="" style="endArrow=block;endSize=16;endFill=0;html=1;exitX=0.5;exitY=0;exitDx=0;exitDy=0;entryX=0.29;entryY=1.019;entryDx=0;entryDy=0;entryPerimeter=0;" parent="1" source="FtybDF0M8yzEMGMQI0fj-28" target="FtybDF0M8yzEMGMQI0fj-27" edge="1">
          <mxGeometry width="160" relative="1" as="geometry">
            <mxPoint x="424.82" y="897.52" as="sourcePoint" />
            <mxPoint x="416.00499999999994" y="820.0039999999999" as="targetPoint" />
          </mxGeometry>
        </mxCell>
        <mxCell id="FtybDF0M8yzEMGMQI0fj-42" value="" style="endArrow=block;endSize=16;endFill=0;html=1;exitX=0.543;exitY=0.001;exitDx=0;exitDy=0;entryX=0.575;entryY=1.048;entryDx=0;entryDy=0;entryPerimeter=0;exitPerimeter=0;" parent="1" source="FtybDF0M8yzEMGMQI0fj-32" target="FtybDF0M8yzEMGMQI0fj-27" edge="1">
          <mxGeometry width="160" relative="1" as="geometry">
            <mxPoint x="502.5" y="949.01" as="sourcePoint" />
            <mxPoint x="648.5999999999999" y="759.9979999999998" as="targetPoint" />
          </mxGeometry>
        </mxCell>
        <mxCell id="FtybDF0M8yzEMGMQI0fj-43" value="" style="endArrow=block;endSize=16;endFill=0;html=1;exitX=0.543;exitY=0.001;exitDx=0;exitDy=0;entryX=0.856;entryY=1.059;entryDx=0;entryDy=0;entryPerimeter=0;exitPerimeter=0;" parent="1" target="FtybDF0M8yzEMGMQI0fj-27" edge="1">
          <mxGeometry width="160" relative="1" as="geometry">
            <mxPoint x="973.4399999999997" y="950.1199999999999" as="sourcePoint" />
            <mxPoint x="939.9999999999999" y="759.9979999999998" as="targetPoint" />
          </mxGeometry>
        </mxCell>
        <mxCell id="FtybDF0M8yzEMGMQI0fj-24" value="PortalState" style="swimlane;fontStyle=1;align=center;verticalAlign=top;childLayout=stackLayout;horizontal=1;startSize=26;horizontalStack=0;resizeParent=1;resizeParentMax=0;resizeLast=0;collapsible=1;marginBottom=0;" parent="1" vertex="1">
          <mxGeometry x="470" y="630" width="340" height="100" as="geometry" />
        </mxCell>
        <mxCell id="FtybDF0M8yzEMGMQI0fj-25" value="&#xa;" style="text;strokeColor=none;fillColor=none;align=left;verticalAlign=top;spacingLeft=4;spacingRight=4;overflow=hidden;rotatable=0;points=[[0,0.5],[1,0.5]];portConstraint=eastwest;" parent="FtybDF0M8yzEMGMQI0fj-24" vertex="1">
          <mxGeometry y="26" width="340" height="14" as="geometry" />
        </mxCell>
        <mxCell id="FtybDF0M8yzEMGMQI0fj-26" value="" style="line;strokeWidth=1;fillColor=none;align=left;verticalAlign=middle;spacingTop=-1;spacingLeft=3;spacingRight=3;rotatable=0;labelPosition=right;points=[];portConstraint=eastwest;" parent="FtybDF0M8yzEMGMQI0fj-24" vertex="1">
          <mxGeometry y="40" width="340" height="8" as="geometry" />
        </mxCell>
        <mxCell id="FtybDF0M8yzEMGMQI0fj-27" value="{virtual} + AddRing (aPortal:Portal, aPlayer:Player)&#xa;{virtual} + Activate (aPortal:Portal)&#xa;{virtual} + EnterPassword (aPortal:Portal,aUserGuess:String)" style="text;strokeColor=none;fillColor=none;align=left;verticalAlign=top;spacingLeft=4;spacingRight=4;overflow=hidden;rotatable=0;points=[[0,0.5],[1,0.5]];portConstraint=eastwest;" parent="FtybDF0M8yzEMGMQI0fj-24" vertex="1">
          <mxGeometry y="48" width="340" height="52" as="geometry" />
        </mxCell>
        <mxCell id="FtybDF0M8yzEMGMQI0fj-20" value="Portal" style="swimlane;fontStyle=1;align=center;verticalAlign=top;childLayout=stackLayout;horizontal=1;startSize=26;horizontalStack=0;resizeParent=1;resizeParentMax=0;resizeLast=0;collapsible=1;marginBottom=0;" parent="1" vertex="1">
          <mxGeometry x="40" y="580" width="220" height="280" as="geometry" />
        </mxCell>
        <mxCell id="FtybDF0M8yzEMGMQI0fj-21" value="- fPortalState: PortalState&#xa;- fPortalRing: ItemsArr&#xa;- fActivated: bool&#xa;" style="text;strokeColor=none;fillColor=none;align=left;verticalAlign=top;spacingLeft=4;spacingRight=4;overflow=hidden;rotatable=0;points=[[0,0.5],[1,0.5]];portConstraint=eastwest;" parent="FtybDF0M8yzEMGMQI0fj-20" vertex="1">
          <mxGeometry y="26" width="220" height="54" as="geometry" />
        </mxCell>
        <mxCell id="FtybDF0M8yzEMGMQI0fj-22" value="" style="line;strokeWidth=1;fillColor=none;align=left;verticalAlign=middle;spacingTop=-1;spacingLeft=3;spacingRight=3;rotatable=0;labelPosition=right;points=[];portConstraint=eastwest;" parent="FtybDF0M8yzEMGMQI0fj-20" vertex="1">
          <mxGeometry y="80" width="220" height="8" as="geometry" />
        </mxCell>
        <mxCell id="FtybDF0M8yzEMGMQI0fj-23" value="+ Portal()&#xa;+ SetCurrentState()&#xa;+ SetPortalRing()&#xa;+ SetActivated()&#xa;&#xa;+ GetActivated: bool&#xa;+ GetPortalRing: bool&#xa;&#xa;+ AddRing (aPlayer:Player)&#xa;+ Activate ()&#xa;+ EnterPassword (aUserGuess:String)&#xa;&#xa;&#xa;&#xa;" style="text;strokeColor=none;fillColor=none;align=left;verticalAlign=top;spacingLeft=4;spacingRight=4;overflow=hidden;rotatable=0;points=[[0,0.5],[1,0.5]];portConstraint=eastwest;" parent="FtybDF0M8yzEMGMQI0fj-20" vertex="1">
          <mxGeometry y="88" width="220" height="192" as="geometry" />
        </mxCell>
        <mxCell id="eKWa105OlJWNkmlLYC_9-2" value="&lt;font style=&quot;font-size: 24px&quot;&gt;Context&lt;/font&gt;" style="text;html=1;strokeColor=none;fillColor=none;align=center;verticalAlign=middle;whiteSpace=wrap;rounded=0;" vertex="1" parent="1">
          <mxGeometry x="70" y="550" width="40" height="20" as="geometry" />
        </mxCell>
        <mxCell id="eKWa105OlJWNkmlLYC_9-7" value="&lt;font style=&quot;font-size: 18px&quot;&gt;State&lt;/font&gt;" style="text;html=1;strokeColor=none;fillColor=none;align=center;verticalAlign=middle;whiteSpace=wrap;rounded=0;" vertex="1" parent="1">
          <mxGeometry x="485" y="600" width="40" height="20" as="geometry" />
        </mxCell>
      </root>
    </mxGraphModel>
  </diagram>
</mxfile>
